<?xml version="1.0" encoding="utf-8"?>
<!-- Generator: Adobe Illustrator 16.0.0, SVG Export Plug-In . SVG Version: 6.00 Build 0)  -->
<!DOCTYPE svg PUBLIC "-//W3C//DTD SVG 1.1//EN" "http://www.w3.org/Graphics/SVG/1.1/DTD/svg11.dtd">
<svg version="1.1" id="Layer_1" xmlns="http://www.w3.org/2000/svg" xmlns:xlink="http://www.w3.org/1999/xlink" x="0px" y="0px"
	 width="844.725px" height="598.115px" viewBox="0 0 844.725 598.115" enable-background="new 0 0 844.725 598.115"
	 xml:space="preserve">
<g>
	<defs>
		<rect id="SVGID_1_" width="844.725" height="598.115"/>
	</defs>
	<clipPath id="SVGID_2_">
		<use xlink:href="#SVGID_1_"  overflow="visible"/>
	</clipPath>
	<path clip-path="url(#SVGID_2_)" fill="#0A0B0B" d="M432.361,90.502c2.049,2.055,4.891,1.163,7.319,1.84
		c12.476,3.476,21.052,11.089,26.97,22.539c15.83,30.633,36.347,57.72,62.133,80.756c21.55,19.252,45.698,34.557,71.698,46.884
		c23.951,11.356,49.063,19.426,74.996,25.122c15.132,3.323,30.454,5.006,45.785,6.467c6.152,0.586,10.757,2.246,14.061,7.368v6.999
		c-3.711,5.495-9.668,7.615-15.322,10.187c-34.274,15.592-68.554,31.171-102.821,46.778
		c-35.505,16.171-71.002,32.358-106.487,48.571c-3.241,1.481-6.455,1.973-10.054,1.481c-31.257-4.262-60.951-13.408-89.395-27.116
		c-20.692-9.973-40.137-21.877-58.459-35.582c-16.491-12.334-31.816-26.063-46.276-40.778c-19.489-19.833-36.974-41.3-52.917-64.027
		c-11.893-16.954-22.778-34.575-32.304-52.97c-7.61-14.696-1.218-31.343,14.315-36.974c13.069-4.738,26.865-6.963,40.333-10.322
		c19.904-4.963,39.877-9.651,59.831-14.415c30.556-7.294,61.122-14.55,91.675-21.856c0.361-0.087,0.614-0.625,0.92-0.953H432.361z
		 M684.743,291.398c-2.945-0.905-4.326-1.493-5.767-1.747c-20.054-3.548-39.507-9.191-58.664-16.081
		c-31.238-11.235-60.277-26.627-86.694-46.604c-29.403-22.236-54.104-49.004-73.289-80.629c-4.891-8.061-9.245-16.446-14.079-24.542
		c-4.412-7.389-11.266-10.675-18.36-8.968c-24.087,5.795-48.145,11.714-72.231,17.513c-21.38,5.148-42.787,10.179-64.174,15.301
		c-15.281,3.659-30.555,7.351-45.816,11.092c-6.363,1.56-7.728,4.68-4.651,10.571c1.683,3.223,3.605,6.32,5.386,9.494
		c16.786,29.911,36.656,57.635,59.302,83.371c18.805,21.37,39.529,40.677,62.41,57.65c18.546,13.757,38.265,25.597,59.345,34.945
		c19.651,8.715,39.981,15.681,61.246,19.373c5.118,0.89,10.468,3.898,15.529,1.629c29.097-13.042,58.032-26.441,87.035-39.693
		c21.626-9.881,43.272-19.715,64.904-29.583C665.285,300.335,674.379,296.149,684.743,291.398"/>
	<path clip-path="url(#SVGID_2_)" fill="#030303" d="M109.401,485.453c128.127-0.009,256.253,0.002,384.38-0.111
		c3.707-0.004,4.914,0.815,4.621,4.612c-0.372,4.803-0.198,9.659-0.045,14.486c0.074,2.364-0.659,3.43-3.083,3.121
		c-0.656-0.083-1.331-0.007-1.998-0.007c-126.96,0-253.921,0-380.881-0.005c-0.998,0-1.996-0.065-2.994-0.101V485.453z"/>
	<path clip-path="url(#SVGID_2_)" fill="#070707" d="M715.377,331.851c-12.129,5.827-24.248,11.676-36.389,17.478
		c-25.504,12.189-51.012,24.371-76.531,36.523c-24.636,11.731-49.292,23.416-73.934,35.133c-7.76,3.689-15.549,7.318-23.229,11.164
		c-3.522,1.764-7.098,2.259-10.994,2.284c-23.654,0.15-47.266-1.087-70.788-3.204c-24.277-2.186-48.412-5.681-72.378-10.356
		c-34.962-6.818-69.218-16.074-102.654-28.349c-23.142-8.495-45.675-18.34-67.47-29.914c-10.543-5.6-21.011-11.285-30.91-17.957
		c-7.696-5.186-7.393-14.099,0.98-18.198c14.692-7.191,29.596-13.958,44.494-20.721c22.834-10.367,45.764-20.523,68.581-30.93
		c2.878-1.313,4.324-1.222,6.516,1.409c15.104,18.137,30.864,35.667,48.371,51.579c20.448,18.585,42.421,35.029,66.467,48.675
		c18.893,10.722,38.59,19.641,59.29,26.262c17.52,5.603,35.361,9.808,53.675,11.877c2.229,0.252,4.177-0.034,6.225-0.975
		c34.542-15.861,69.111-31.662,103.674-47.48c24.369-11.152,48.73-22.32,73.107-33.454c3.653-1.668,7.447-2.391,11.556-2.242
		c7.385,0.268,14.786,0.075,22.179,0.075L715.377,331.851z"/>
	<path clip-path="url(#SVGID_2_)" fill="#070707" d="M112.58,475.902c9.405-3.812,18.807-7.632,28.216-11.435
		c26.654-10.773,53.303-21.559,79.971-32.298c9.959-4.012,20.21-7.396,29.856-12.047c5.888-2.839,10.668-0.651,15.666,0.991
		c27.703,9.106,55.904,16.068,84.544,21.615c24.645,4.772,49.455,8.19,74.391,10.342c15.047,1.299,30.151,2.907,45.339,2.602
		c6.81-0.138,13.628,0.052,20.445,0.665c6.438,0.58,12.535-0.221,18.69-3.266c25.805-12.762,51.864-25.006,77.851-37.396
		c26.119-12.454,52.262-24.862,78.404-37.268c0.877-0.416,1.873-0.818,2.815-0.82c17.578-0.05,35.157-0.036,53.03,1.012
		c-6.52,2.931-13.022,5.897-19.559,8.788c-24.025,10.623-48.055,21.241-72.099,31.823c-26.479,11.652-52.984,23.249-79.465,34.898
		c-14.988,6.593-29.968,13.208-44.916,19.891c-3.822,1.709-7.604,2.939-11.923,2.937c-124.642-0.073-249.282-0.059-373.924-0.06
		c-2.402,0-4.805,0-7.208,0C112.664,476.552,112.622,476.228,112.58,475.902"/>
	<path clip-path="url(#SVGID_2_)" fill="#0B0C0C" d="M504.342,507.59c0-6.69,0.192-12.695-0.084-18.68
		c-0.131-2.849,0.971-4.061,3.391-5.149c28.968-13.04,57.896-26.164,86.824-39.289c41.549-18.853,83.09-37.722,124.634-56.586
		c5.224-2.372,5.247-2.363,5.262,3.36c0.002,0.833,0.067,1.674-0.009,2.499c-0.457,4.868,2.032,10.768-1.132,14.363
		c-2.891,3.286-8.376,4.305-12.737,6.278c-27.287,12.341-54.578,24.673-81.871,37.001c-27.243,12.305-54.494,24.592-81.734,36.903
		C532.902,494.611,518.938,500.968,504.342,507.59"/>
</g>
</svg>
